# xmcd
#
# Track frame offsets: 
#        150
#        13285
#        26465
#        37767
#        49387
#        60837
#        72482
#        81547
#        90740
#        111860
#        123477
#        132805
#        145302
#        156445
#        167482
#        178270
#
# Disc length: 2537 seconds
#
# Revision: 6
# Processed by: cddbd v1.5.2PL0 Copyright (c) Steve Scherf et al.
# Submitted via: ExactAudioCopyFreeDBPlugin 1.0
#
DISCID=df09e710
DTITLE=Booker T. and The MG's - The Best Of Booker T. and The MG's
DYEAR=1984
DGENRE=Blues
TTITLE0=Green Onions
TTITLE1=Mo' Onions
TTITLE2=Jellybread
TTITLE3=Tic-Tac-Toe
TTITLE4=Soul Dressing
TTITLE5=Terrible Thing
TTITLE6=Can't Be Still
TTITLE7=Boot-Leg
TTITLE8=Summertime
TTITLE9=Be My Lady
TTITLE10=Red Beans And Rice
TTITLE11=My Sweet Potato
TTITLE12=Booker-Loo
TTITLE13=Hip Hug-Her
TTITLE14=Slim Jenkins' Place
TTITLE15=Groovin'
EXTD=Re-issue produced by Bob Porter(C) 1984 Atlantic Recording Corpor
EXTD=ation YEAR: 1984 ID3G: 0
EXTT0=
EXTT1=
EXTT2=
EXTT3=
EXTT4=
EXTT5=Bonus track !
EXTT6=
EXTT7=
EXTT8=
EXTT9=Bonus track !
EXTT10=
EXTT11=Bouns track !
EXTT12=Bonus track !
EXTT13=
EXTT14=
EXTT15=
PLAYORDER=
